<?xml version="1.0" encoding="UTF-8"?>
<svg version="1.1" xmlns="http://www.w3.org/2000/svg" width="512" height="512">
<path d="M0 0 C6.61207072 4.72290765 8.65141084 9.85531862 10.60229492 17.46630859 C10.85204417 18.38940008 11.10179342 19.31249157 11.35911083 20.26355553 C12.13023017 23.13010398 12.87908611 26.0018024 13.625 28.875 C14.07878583 30.58610341 14.53339586 32.2969885 14.98892212 34.00762939 C16.34699029 39.13675121 17.6688959 44.27488028 18.98828125 49.4140625 C19.4702883 51.28265158 19.9525685 53.15117021 20.43510437 55.0196228 C21.68473869 59.86077454 22.93134868 64.70269913 24.17706299 69.54486084 C26.18680261 77.35492292 28.2009623 85.16384553 30.21574974 92.97260666 C30.91537019 95.68618174 31.61346742 98.40014522 32.31135559 101.11416626 C32.7365833 102.76443491 33.16184872 104.41469383 33.5871582 106.06494141 C33.77985291 106.81597641 33.97254761 107.56701141 34.17108154 108.34080505 C34.91402257 111.21947274 35.68447988 114.05343965 36.625 116.875 C39.52573181 117.55301034 39.52573181 117.55301034 42.625 117.875 C43.285 117.215 43.945 116.555 44.625 115.875 C44.4192042 106.1367908 41.45776235 96.81460244 38.96875 87.4609375 C38.50094443 85.67856605 38.03395811 83.8959794 37.56774902 82.1131897 C36.34472524 77.44250269 35.11360834 72.77399433 33.87982178 68.10614014 C31.90402656 60.63000711 29.93572128 53.15193689 27.97676086 45.67137527 C27.29380651 43.07124245 26.60437013 40.4728894 25.91442871 37.87460327 C25.49281302 36.26982587 25.07145355 34.66498112 24.65039062 33.06005859 C24.45919144 32.34712143 24.26799225 31.63418427 24.07099915 30.89964294 C21.96916234 22.83042798 20.46526672 15.52947519 24.625 7.875 C28.88300645 2.95626842 33.49164604 0.16512537 40 -0.4375 C45.43847859 0.03133436 49.15909608 1.67562407 53.375 5.125 C57.8229228 10.56135009 59.42912787 17.22842032 61.24462891 23.89624023 C61.48729996 24.771987 61.72997101 25.64773376 61.97999573 26.55001831 C62.77556837 29.42651079 63.56383255 32.3049445 64.3515625 35.18359375 C64.90510926 37.19474255 65.45893649 39.20581418 66.01303101 41.21681213 C67.17115978 45.42465096 68.32561815 49.63347524 69.47753906 53.84301758 C70.95091898 59.22598522 72.43380899 64.60627855 73.91951942 69.98585415 C75.06451335 74.13612763 76.20422474 78.28783776 77.34238815 82.43998909 C77.88692174 84.4238873 78.43312832 86.40732713 78.98106766 88.3902874 C79.7474944 91.16686756 80.50671923 93.94532235 81.26416016 96.72436523 C81.48962021 97.53552292 81.71508026 98.3466806 81.94737244 99.18241882 C83.27151645 104.07673957 84.26743205 108.80826521 84.625 113.875 C83 115.90625 83 115.90625 80.625 117.375 C71.50004904 123.63332562 65.74838527 131.42850174 63.10383606 142.21340942 C62.15323174 147.49730453 61.99731526 152.8700079 61.73388672 158.22427177 C61.6229511 160.47516621 61.50213727 162.72534837 61.37890625 164.9756012 C61.11895351 169.75412873 60.87115018 174.53324429 60.625 179.3125 C60.33942425 184.85278112 60.04870727 190.39270236 59.74560547 195.93205452 C59.62762629 198.13456447 59.5186766 200.33739688 59.41015625 202.54039001 C58.46057202 220.68574459 58.46057202 220.68574459 55.0234375 224.78515625 C54.35570312 225.16542969 53.68796875 225.54570312 53 225.9375 C52.20207031 226.40285156 51.40414062 226.86820313 50.58203125 227.34765625 C46.26845348 229.5756733 41.93902732 231.76842327 37.58178711 233.90991211 C24.08518295 240.54620588 15.07771083 247.30570923 6.625 259.875 C6.15320313 260.56464844 5.68140625 261.25429688 5.1953125 261.96484375 C3.4335938 264.74106942 2.59579867 266.42724627 2.8125 269.75 C3.44106274 271.82704276 3.44106274 271.82704276 4.625 272.875 C6.95015499 273.62842517 6.95015499 273.62842517 9.625 272.875 C11.04675639 271.11814951 12.0859765 269.24130475 13.2109375 267.28125 C22.01825564 252.2942114 35.7913623 244.84309865 51.07275391 237.71704102 C59.34931076 233.79823349 64.29071969 229.5040612 67.625 220.875 C68.26552704 217.70319452 68.45394796 214.5684066 68.6015625 211.33984375 C68.6570224 210.43547073 68.7124823 209.53109772 68.7696228 208.59931946 C68.94562252 205.67106128 69.09759111 202.74207125 69.25 199.8125 C69.36924817 197.78797639 69.49035538 195.76356145 69.61328125 193.73925781 C69.97071338 187.78556692 70.30138621 181.83061331 70.625 175.875 C70.87555779 171.27637994 71.12656501 166.6778805 71.39599609 162.08032227 C71.54406482 159.52290068 71.68060068 156.9647738 71.80322266 154.40600586 C72.4301457 143.4052954 74.35568059 136.16321242 82.109375 128.109375 C89.73120737 121.33967296 98.98793048 118.97306831 109.05859375 118.84375 C112.1418142 119.07004141 114.1204825 119.35639404 116.31561375 121.61282349 C117.86297669 124.28614322 118.00426489 125.87031467 118.01268005 128.94482422 C118.02258469 129.96792191 118.03248932 130.99101959 118.04269409 132.04512024 C118.03819244 133.16202744 118.0336908 134.27893463 118.02905273 135.4296875 C118.03591599 136.61068527 118.04277924 137.79168304 118.04985046 139.00846863 C118.06502061 142.24665086 118.06660932 145.48447251 118.06090808 148.72267532 C118.05781376 151.43325777 118.06391238 154.14378838 118.06994683 156.85436344 C118.08399919 163.25923542 118.08242899 169.6639741 118.07104492 176.06884766 C118.05960286 182.65126223 118.07357119 189.2332675 118.1004414 195.81562805 C118.12270059 201.48296965 118.12921177 207.15018377 118.12336498 212.81756592 C118.1200136 216.19494407 118.12228588 219.57206089 118.13961601 222.94940186 C118.15459521 226.72828951 118.14379421 230.50629501 118.12670898 234.28515625 C118.14121094 235.93622627 118.14121094 235.93622627 118.15600586 237.62065125 C118.05779425 248.06341682 115.44125322 257.31846448 109.125 265.6875 C108.69703125 266.26169678 108.2690625 266.83589355 107.828125 267.42749023 C103.5368039 273.13152535 99.04526367 278.68677084 94.5546875 284.234375 C91.49058552 288.02612644 88.5138941 291.87815335 85.5546875 295.75244141 C83.13661206 298.91564373 80.69974788 302.0626434 78.2421875 305.1953125 C47.65635939 344.19193137 43.87061992 367.31334361 42.625 420.875 C1.045 420.875 -40.535 420.875 -83.375 420.875 C-83.705 402.725 -84.035 384.575 -84.375 365.875 C-88.06896838 350.34533597 -88.06896838 350.34533597 -92 334.875 C-99.61852418 304.37687008 -97.81373015 279.18287029 -87.95556641 249.53295898 C-80.98769076 228.39534102 -82.6636653 210.59824939 -87.18464851 189.21570587 C-87.86332272 186.00398589 -88.52762691 182.78956787 -89.18858337 179.57415771 C-90.83078041 171.59916982 -92.49595983 163.62902169 -94.16204834 155.65899658 C-95.57554006 148.8936875 -96.97936368 142.12651331 -98.37029839 135.35652924 C-99.02114958 132.208375 -99.68593437 129.06337995 -100.35133362 125.91827393 C-105.47780019 101.2763517 -105.47780019 101.2763517 -101.6875 93.875 C-98.28095513 89.45569855 -94.81706155 86.3591986 -89.375 84.875 C-83.74790207 84.16216226 -79.39127776 84.86717415 -74.296875 87.31640625 C-68.55901383 91.96967171 -66.43580612 97.75243019 -64.81958008 104.6809082 C-64.60748398 105.53393524 -64.39538788 106.38696228 -64.17686462 107.26583862 C-63.4846231 110.06575528 -62.81441445 112.87043927 -62.14453125 115.67578125 C-61.66451113 117.63753787 -61.18318171 119.59897453 -60.7006073 121.56010437 C-59.43654377 126.71337537 -58.19141317 131.87104462 -56.94989014 137.02978516 C-55.93740457 141.2233608 -54.91186825 145.41369006 -53.88553333 149.60389423 C-51.75743654 158.29289844 -49.63810047 166.98406953 -47.54223633 175.6809082 C-47.35156586 176.46617386 -47.16089539 177.25143951 -46.96444702 178.0605011 C-45.62537413 183.63882054 -44.46647507 189.24322902 -43.375 194.875 C-41.065 194.875 -38.755 194.875 -36.375 194.875 C-33.91540456 190.33355156 -34.63904581 186.98083646 -35.88525391 182.20629883 C-36.07072375 181.44616423 -36.2561936 180.68602962 -36.44728374 179.90286064 C-37.06773216 177.37547113 -37.70960894 174.85403654 -38.3515625 172.33203125 C-38.79442788 170.54589493 -39.23590351 168.75941352 -39.67607117 166.97261047 C-40.61423292 163.17607846 -41.56164141 159.38202485 -42.51651001 155.58966064 C-44.00095894 149.69303661 -45.46377978 143.79119088 -46.92260742 137.88818359 C-48.84578293 130.11297154 -50.77616116 122.33959612 -52.71337891 114.56787109 C-55.82236357 102.09137259 -58.90532899 89.60888882 -61.93109131 77.11190796 C-62.67023056 74.07104745 -63.42087891 71.03319046 -64.17236328 67.99536133 C-64.61163195 66.18716449 -65.05031473 64.37882517 -65.48828125 62.5703125 C-65.68411301 61.79093826 -65.87994476 61.01156403 -66.08171082 60.20857239 C-67.80716718 52.97690168 -68.46093363 46.37531981 -64.69140625 39.703125 C-61.84449506 35.74955101 -58.70604787 33.4872328 -53.98046875 32.24609375 C-48.15206643 31.39555885 -43.47364073 31.87839131 -38.375 34.875 C-31.99283573 40.12450355 -30.5480093 46.93878535 -28.74609375 54.6953125 C-28.43440247 55.96380539 -28.12271118 57.23229828 -27.80157471 58.53923035 C-27.13107482 61.2686982 -26.47326618 64.0007896 -25.82553101 66.73574829 C-24.80818879 71.03096278 -23.76209259 75.31885604 -22.7121582 79.60620117 C-20.74738398 87.64725141 -18.81325536 95.6954888 -16.88528442 103.74542999 C-16.06382767 107.17361548 -15.24017345 110.60127158 -14.41601562 114.02880859 C-14.25915504 114.68122654 -14.10229445 115.33364449 -13.9406805 116.00583267 C-12.60052575 121.57651548 -11.25109705 127.14493425 -9.90042114 132.71307373 C-9.07319649 136.14314716 -8.26035535 139.57640307 -7.44897461 143.01025391 C-6.94951854 145.08637435 -6.44962612 147.16238989 -5.94921875 149.23828125 C-5.73114563 150.17898972 -5.51307251 151.11969818 -5.28839111 152.08891296 C-5.07938171 152.94556046 -4.87037231 153.80220795 -4.6550293 154.68481445 C-4.47900681 155.42665482 -4.30298431 156.16849518 -4.12162781 156.93281555 C-3.24245834 159.21977735 -2.31483403 160.38640027 -0.375 161.875 C2.27966049 161.64456136 2.27966049 161.64456136 4.625 160.875 C6.03980191 155.33830526 5.05807161 151.18860507 3.67822266 145.80078125 C3.45873962 144.9050943 3.23925659 144.00940735 3.01312256 143.08657837 C2.28269214 140.11739979 1.53585433 137.15260182 0.7890625 134.1875 C0.27003714 132.09018985 -0.24789725 129.99260944 -0.76480103 127.89477539 C-2.13545207 122.34359106 -3.51972913 116.79589563 -4.90722656 111.24890137 C-6.27989994 105.75363494 -7.64190882 100.25573294 -9.00390625 94.7578125 C-9.26994785 93.68445145 -9.53598946 92.61109039 -9.81009293 91.50520325 C-11.92047921 82.98937714 -14.02792146 74.4728222 -16.13024521 65.95500183 C-17.35457139 60.99556466 -18.58294004 56.03722455 -19.8223877 51.08154297 C-20.93614168 46.6264423 -22.03545522 42.16802936 -23.12346268 37.70657349 C-23.51932161 36.09414298 -23.92037767 34.48297771 -24.32712936 32.8732605 C-28.91658175 14.68585118 -28.91658175 14.68585118 -24.625 6.5625 C-17.99994723 -1.35075747 -9.80826025 -3.26942008 0 0 Z " fill="#000000" transform="translate(362.375,46.125)"/>
<path d="M0 0 C5.4198224 2.56728429 8.69582305 6.32954244 11.3125 11.6875 C12.94915656 19.57320886 10.52172784 27.79915482 8.5949707 35.46899414 C8.22881905 36.96176628 8.22881905 36.96176628 7.85527039 38.48469543 C7.05189934 41.75314594 6.23887341 45.01911181 5.42578125 48.28515625 C4.85803549 50.58736594 4.29092342 52.88973199 3.72441101 55.19224548 C2.2317768 61.25199746 0.73105384 67.30971679 -0.77154541 73.36700439 C-2.57579984 80.64642021 -4.37071356 87.92814322 -6.16692066 95.209548 C-7.83173002 101.95743718 -9.49994439 108.70446622 -11.17179585 115.45061398 C-11.93736425 118.5470778 -12.6977811 121.64477014 -13.45736694 124.7427063 C-14.53654235 129.14133457 -15.64166076 133.53268193 -16.75772095 137.92208862 C-17.32290227 140.18293107 -17.88780146 142.44384407 -18.45239258 144.70483398 C-18.7229053 145.74948602 -18.99341803 146.79413805 -19.27212811 147.87044621 C-20.51478069 152.89900636 -21.47244337 156.8760143 -20 162 C-17.65466049 162.76956136 -17.65466049 162.76956136 -15 163 C-12.21263388 160.88527506 -11.44095753 158.86291927 -10.63439941 155.52377319 C-10.29394341 154.14876144 -10.29394341 154.14876144 -9.9466095 152.74597168 C-9.70963852 151.74231567 -9.47266754 150.73865967 -9.22851562 149.70458984 C-8.96955002 148.64571564 -8.71058441 147.58684143 -8.44377136 146.49588013 C-7.58801201 142.98656097 -6.74727436 139.47381432 -5.90625 135.9609375 C-5.31341786 133.52030584 -4.71953112 131.07993012 -4.12463379 128.63980103 C-2.7182289 122.86193461 -1.32080783 117.08194638 0.07176161 111.30073416 C2.70839581 100.35616126 5.3645207 89.41631984 8.02326965 78.47710037 C8.89305486 74.89035056 9.75717108 71.3022713 10.6204834 67.71395874 C11.15635782 65.49986528 11.69236179 63.28580316 12.22851562 61.07177734 C12.4654866 60.08026672 12.70245758 59.0887561 12.9466095 58.06719971 C17.37148234 39.86646816 17.37148234 39.86646816 25 35 C30.22366474 32.33012691 35.40617893 32.65251854 41 34 C46.12783201 36.25741371 48.87183409 39.74012631 51.37109375 44.64453125 C52.98838919 50.70185518 51.84778569 56.61407699 50.37036133 62.57861328 C50.19593946 63.29383998 50.0215176 64.00906668 49.84181023 64.74596691 C49.26392395 67.10632115 48.67303304 69.46321121 48.08203125 71.8203125 C47.66769313 73.5015199 47.25420394 75.18293672 46.84150696 76.86454773 C45.96340331 80.43562487 45.07974971 84.00526362 44.19171143 87.57388306 C42.80740272 93.13860959 41.43829251 98.70700433 40.07177734 104.27612305 C36.47614167 118.91903925 32.86007049 133.55685029 29.21669292 148.18796158 C27.79199533 153.91209497 26.38097376 159.63953755 24.97518921 165.36834717 C24.1392966 168.75458385 23.28632576 172.13622339 22.43286133 175.51806641 C21.9360555 177.53915321 21.44014404 179.56046017 20.9453125 181.58203125 C20.71411209 182.47709885 20.48291168 183.37216644 20.2447052 184.2943573 C19.15586227 188.83091002 18.50970516 191.75609091 21 196 C23.31 196 25.62 196 28 196 C28.35325096 194.38559273 28.35325096 194.38559273 28.71363831 192.73857117 C32.41512052 175.90446394 36.48145952 159.1627558 40.57202148 142.41967773 C41.48869506 138.66378383 42.39671219 134.90594933 43.29760742 131.14624023 C44.39728873 126.55741574 45.51211696 121.97252045 46.63772774 117.38998985 C47.06042485 115.65823165 47.47784573 113.92517613 47.88969231 112.19080544 C48.46527284 109.77159186 49.06025217 107.35792075 49.65991211 104.94458008 C49.82266632 104.240616 49.98542053 103.53665192 50.15310669 102.81135559 C51.61597886 97.06650432 54.22499109 92.25046454 58.921875 88.44140625 C64.69769197 85.66457117 69.95704257 84.7056719 76.171875 86.6953125 C81.06243602 88.88319506 83.93719116 91.63781771 87 96 C90.61583112 106.84749337 86.6112311 119.31569393 84.3266468 130.11411285 C83.64727855 133.32651741 82.98293101 136.54172396 82.3221283 139.75799561 C80.91539108 146.59142197 79.49008396 153.420903 78.0625 160.25 C76.4099449 168.15878618 74.76533656 176.06908442 73.13851738 183.9832077 C72.48893173 187.12442133 71.82615229 190.26264925 71.16261292 193.40093994 C66.18584785 217.30967101 67.72337207 235.13778923 75.11221313 258.36175537 C84.49772402 287.93636496 82.47278879 314.1812953 74.59765625 343.86328125 C67.0268261 372.94341367 68.64891831 386.3094927 68 422 C26.42 422 -15.16 422 -58 422 C-58.495 401.21 -58.495 401.21 -59 380 C-61.89315981 356.85472152 -67.73188508 338.85104628 -82.54589844 320.79150391 C-85.34184623 317.34679858 -88.03485764 313.82096482 -90.75 310.3125 C-91.95258466 308.76650661 -93.15571485 307.22093744 -94.359375 305.67578125 C-96.74561333 302.61131529 -99.13115508 299.54631094 -101.515625 296.48046875 C-102.09159424 295.74014404 -102.66756348 294.99981934 -103.26098633 294.23706055 C-104.41815654 292.74848121 -105.57424847 291.25906301 -106.72924805 289.76879883 C-109.73223728 285.8973125 -112.75608349 282.0451256 -115.81640625 278.21875 C-116.44353516 277.42855469 -117.07066406 276.63835937 -117.71679688 275.82421875 C-118.90223869 274.33144016 -120.09440525 272.84396354 -121.29492188 271.36328125 C-130.08164025 260.25219965 -133.30564969 249.9721384 -133.2746582 235.9777832 C-133.27976913 234.78349701 -133.28488007 233.58921082 -133.29014587 232.35873413 C-133.30162488 229.10067159 -133.30412226 225.84276767 -133.30158257 222.58469033 C-133.3005094 219.86078694 -133.30540457 217.13690678 -133.310188 214.41300839 C-133.32125883 207.98878135 -133.32173295 201.56461281 -133.31567383 195.14038086 C-133.30962249 188.51634959 -133.32197982 181.89253011 -133.3432439 175.26853496 C-133.36085325 169.57324792 -133.3668627 163.87802838 -133.36360615 158.18271512 C-133.36179356 154.78443867 -133.36442776 151.38631365 -133.37832069 147.9880619 C-133.39061686 144.20321777 -133.383935 140.41886903 -133.37231445 136.6340332 C-133.37995819 135.50927078 -133.38760193 134.38450836 -133.39547729 133.22566223 C-133.38846298 132.19533875 -133.38144867 131.16501526 -133.3742218 130.10346985 C-133.37438954 129.20920445 -133.37455729 128.31493906 -133.37473011 127.39357471 C-132.91732007 124.471885 -132.04361388 123.11647863 -130 121 C-121.82290192 118.64122171 -112.30204129 120.84893412 -104.53515625 124 C-96.96442976 128.31756283 -91.3309871 134.93458291 -88.67738342 143.18212891 C-87.29583185 148.92929384 -87.16855531 154.82719219 -86.8671875 160.7109375 C-86.78531504 162.1291039 -86.70229557 163.54720449 -86.61819458 164.96524048 C-86.40074833 168.6790604 -86.19766147 172.39352177 -85.99804688 176.1083374 C-85.75426886 180.59900418 -85.49440917 185.08876254 -85.2360096 189.57860756 C-85.03484626 193.07694379 -84.83621883 196.57534892 -84.64620972 200.0743103 C-84.49075024 216.9544269 -84.49075024 216.9544269 -78 232 C-74.95490273 234.59116973 -71.57455614 236.23626691 -68 238 C-37.01015282 253.59906097 -37.01015282 253.59906097 -28.71484375 268.2734375 C-27.01266503 271.24313161 -27.01266503 271.24313161 -25 274 C-22.36757327 274.83541854 -22.36757327 274.83541854 -20 274 C-19.34 273.34 -18.68 272.68 -18 272 C-18.56801461 263.00012405 -25.59449044 254.09165386 -32 248 C-42.58873711 239.01166955 -55.54044637 232.88666114 -68.1171875 227.16796875 C-70.50974852 225.68378671 -71.60532639 224.45946933 -73 222 C-73.80397108 217.34823809 -74.19440688 212.74118044 -74.43310547 208.0300293 C-74.4674469 207.37207367 -74.50178833 206.71411804 -74.53717041 206.03622437 C-74.61095954 204.61988815 -74.68347247 203.20348496 -74.75481796 201.78702354 C-74.86912107 199.5361424 -74.98889878 197.28561494 -75.11038208 195.03511047 C-75.45544337 188.64045919 -75.79757263 182.24571003 -76.11962891 175.84985352 C-76.3176667 171.92487285 -76.52780549 168.00069426 -76.74557877 164.07676125 C-76.82573541 162.59203035 -76.90151065 161.10705548 -76.9725914 159.62186241 C-77.71368254 144.21043142 -80.49961069 131.6597629 -91.99609375 120.73046875 C-94.54033238 118.53339718 -97.11932082 116.72840751 -100 115 C-99.43085974 109.75609797 -98.56464932 104.8714705 -97.16162109 99.77148438 C-96.97764771 99.09685654 -96.79367432 98.4222287 -96.60412598 97.72715759 C-95.99924741 95.51451425 -95.38648064 93.30414383 -94.7734375 91.09375 C-94.34280072 89.52611917 -93.91260306 87.95836765 -93.4828186 86.39050293 C-92.57998021 83.10135307 -91.67352668 79.81322978 -90.76416016 76.52587891 C-89.61957224 72.38803903 -88.4813267 68.24849124 -87.34536362 64.10827637 C-85.17781833 56.20861006 -82.99339324 48.31388611 -80.78762436 40.42480469 C-79.82778292 36.98804701 -78.87444532 33.54994871 -77.94445801 30.10498047 C-77.03113228 26.72236009 -76.09969586 23.34525328 -75.1640625 19.96875 C-74.91200043 19.01005005 -74.65993835 18.0513501 -74.40023804 17.06359863 C-72.56487863 10.55467349 -70.10400914 7.06933943 -64.375 3.25 C-60.08682527 0.99306593 -56.81482021 0.60534261 -52 1 C-46.25723086 2.90699165 -42.25802502 5.82548968 -39 11 C-36.63285479 18.15096634 -37.07684783 23.85099141 -39.04296875 31 C-39.28261856 31.93832672 -39.52226837 32.87665344 -39.7691803 33.84341431 C-40.55534775 36.90117995 -41.37124302 39.95014327 -42.1875 43 C-42.7392693 45.12628152 -43.2890496 47.2530801 -43.83691406 49.38037109 C-45.53011667 55.92770433 -47.26245344 62.46431964 -49 69 C-49.55251774 71.08488897 -50.10476911 73.16984855 -50.65673828 75.25488281 C-51.05600273 76.76263275 -51.05600273 76.76263275 -51.46333313 78.30084229 C-52.23763867 81.22757406 -53.01007567 84.1547948 -53.7824707 87.08203125 C-54.74160535 90.71559597 -55.71390181 94.34524804 -56.69604492 97.97265625 C-57.1360634 99.61974935 -57.57593197 101.2668825 -58.015625 102.9140625 C-58.21817398 103.64944244 -58.42072296 104.38482239 -58.62940979 105.14248657 C-59.69733798 109.17706588 -60.39677846 112.8260462 -60 117 C-59.34 117.66 -58.68 118.32 -58 119 C-54.90073181 118.67801034 -54.90073181 118.67801034 -52 118 C-50.10902727 110.83014404 -48.21968653 103.6598592 -46.33096313 96.4894104 C-45.48289192 93.27152737 -44.63383105 90.0539079 -43.78425121 86.83642292 C-40.22006228 73.33504076 -36.68671843 59.82750239 -33.25 46.29296875 C-32.38098024 42.88724314 -31.51134952 39.48167393 -30.64169312 36.07611084 C-30.09115111 33.90923941 -29.54474837 31.74131189 -29.00259399 29.57232666 C-28.2475131 26.55206155 -27.47865682 23.5356046 -26.70703125 20.51953125 C-26.49091187 19.63766647 -26.27479248 18.7558017 -26.05212402 17.84721375 C-24.15665624 10.53089712 -21.28605606 5.46640825 -15 1 C-10.58318729 -1.20840635 -4.80757466 -0.42161434 0 0 Z " fill="#000000" transform="translate(165,45)"/>
</svg>
