<?xml version="1.0" encoding="UTF-8"?>
<svg version="1.1" xmlns="http://www.w3.org/2000/svg" width="512" height="512">
<path d="M0 0 C28.94005309 21.31870416 43.1319436 55.99091379 48.921875 90.5078125 C52.02991564 118.62400409 49.85128334 148.01580462 31.8125 170.9375 C23.78309433 180.10417644 14.52827373 187.48045304 3.11865234 191.97973633 C2.2185141 192.33586502 1.31837585 192.69199371 0.39096069 193.05891418 C-0.29493134 193.3282225 -0.98082336 193.59753082 -1.6875 193.875 C-1.01736214 214.64543936 0.00795119 235.39191805 1.08499336 256.14441109 C1.3859216 261.9440366 1.68323129 267.74384449 1.97996521 273.54368591 C2.82304749 290.01282771 3.67001623 306.48176692 4.5222168 322.95043945 C4.99550801 332.09733337 5.46546501 341.24439262 5.93187374 350.39164013 C6.22506086 356.13800724 6.5222313 361.88414902 6.82252324 367.63014901 C7.00902701 371.21779308 7.19161961 374.80562878 7.37318039 378.39352608 C7.457035 380.03571745 7.54241638 381.67783183 7.62957954 383.31985092 C8.07660006 391.75770917 8.40072491 400.18757536 8.46861267 408.63780212 C8.48525714 409.7496136 8.48525714 409.7496136 8.50223786 410.88388592 C8.51480497 418.41264173 6.5017895 424.18317285 2.0625 430.1875 C-7.77044976 439.79697363 -18.62389093 440.02239496 -31.8125 440.125 C-32.73047363 440.13442627 -33.64844727 440.14385254 -34.59423828 440.15356445 C-44.8617136 440.10482935 -53.83691753 438.94502742 -61.6875 431.875 C-67.62138654 424.77212511 -70.0386048 418.02386965 -69.86987305 408.75675964 C-69.86229571 407.97228586 -69.85471838 407.18781208 -69.84691143 406.37956637 C-69.72338542 397.16552272 -69.2544409 387.96753326 -68.76953125 378.7668457 C-68.67061319 376.82485438 -68.57210456 374.88284216 -68.47396851 372.94081116 C-68.2638248 368.79940685 -68.05084372 364.65816235 -67.83554077 360.51702309 C-67.49490952 353.96512733 -67.16076166 347.41291017 -66.82739258 340.86064148 C-66.29965728 330.50314488 -65.76759374 320.14587594 -65.23367405 309.78869647 C-64.27635349 291.21609917 -63.32577589 272.64315648 -62.37782955 254.07007855 C-62.04532491 247.55889138 -61.71069071 241.04781814 -61.37428284 234.5368315 C-61.16563559 230.4929279 -60.9584093 226.44895232 -60.75151443 222.40495872 C-60.65539549 220.53244693 -60.55865869 218.65996672 -60.46125412 216.78752136 C-60.32824472 214.22926295 -60.19743347 211.67090095 -60.06713867 209.11250305 C-60.02822919 208.37476333 -59.98931971 207.63702362 -59.94923115 206.87692815 C-59.73082666 202.53473316 -59.65295873 198.22065141 -59.6875 193.875 C-61.33685547 193.16537109 -61.33685547 193.16537109 -63.01953125 192.44140625 C-81.92238649 184.08131061 -95.90181472 171.818602 -104.12890625 152.48828125 C-109.17040285 139.04930672 -111.22683635 125.92741055 -111.0625 111.625 C-111.05784729 110.90100006 -111.05319458 110.17700012 -111.04840088 109.43106079 C-110.96507847 98.35482733 -110.46892693 87.63834752 -107.6875 76.875 C-107.38948486 75.69671631 -107.38948486 75.69671631 -107.08544922 74.49462891 C-101.3602374 52.4815111 -91.93998917 30.9945547 -76.6875 13.875 C-75.95144531 13.04484375 -75.21539062 12.2146875 -74.45703125 11.359375 C-54.1260834 -10.26505893 -25.56936891 -16.71612498 0 0 Z " fill="#000000" transform="translate(190.6875,41.125)"/>
<path d="M0 0 C4.96536747 2.30534918 7.41873311 5.22209438 10 10 C10.56409975 13.30514396 10.53380788 16.55509714 10.49829102 19.90161133 C10.50380981 20.88289505 10.50932861 21.86417877 10.51501465 22.87519836 C10.52431974 24.99987096 10.52445218 27.12459933 10.51642036 29.24927711 C10.50377417 32.61720668 10.51509672 35.98431859 10.53245544 39.35221863 C10.55915663 45.29176656 10.56475136 51.23111387 10.56335449 57.17071533 C10.56112649 66.66631598 10.57534966 76.16166754 10.61894035 85.65717125 C10.62874706 88.96582099 10.6200763 92.27407649 10.61024475 95.5827179 C10.61639261 97.6252162 10.62330555 99.6677124 10.63110352 101.71020508 C10.62338425 102.62219666 10.61566498 103.53418823 10.60771179 104.47381592 C10.6617676 111.36883118 11.42286647 118.20810534 16.25 123.4375 C22.01716698 126.71429942 27.95377619 127.3402619 34.4375 127.625 C35.16904297 127.66367188 35.90058594 127.70234375 36.65429688 127.7421875 C38.43583532 127.83533984 40.21788122 127.91870286 42 128 C41.99631283 127.39739035 41.99262566 126.79478069 41.98882675 126.17391014 C41.90043207 111.50100423 41.83426919 96.82811406 41.79275131 82.1550045 C41.77213908 75.0591309 41.74404441 67.96343519 41.69824219 60.86767578 C41.65406682 54.02068012 41.63086615 47.17386946 41.62049103 40.32674026 C41.61309664 37.71363032 41.59865732 35.10053056 41.57707977 32.48749924 C41.54807023 28.8291711 41.54404316 25.17160813 41.54589844 21.51318359 C41.52432678 19.89046036 41.52432678 19.89046036 41.50231934 18.23495483 C41.53575205 12.1479958 41.94040773 8.63383658 46 4 C49.81930172 0.37166337 52.88279006 -0.31000458 58 -0.5 C63.11720994 -0.31000458 66.18069828 0.37166337 70 4 C74.80850543 9.48868627 74.54837165 14.42173605 74.45410156 21.51318359 C74.45468567 22.66498108 74.45526978 23.81677856 74.45587158 25.003479 C74.45308984 28.80210742 74.42199167 32.59994653 74.390625 36.3984375 C74.38316298 39.03544689 74.37746987 41.67246184 74.37347412 44.30947876 C74.36106163 50.53554145 74.32826381 56.76132185 74.28807616 62.98726046 C74.24330434 70.07791397 74.22135788 77.16858124 74.20129442 84.259341 C74.15952936 98.83970602 74.08921119 113.41984906 74 128 C76.55771345 127.86514559 79.11475942 127.7235613 81.671875 127.578125 C82.39101074 127.54090332 83.11014648 127.50368164 83.85107422 127.46533203 C90.50608038 127.07744024 96.38551866 126.41336739 101.4375 121.75 C105.10322079 115.29833142 105.28788548 109.18427081 105.25537109 101.93725586 C105.25899155 100.95100723 105.262612 99.96475861 105.26634216 98.94862366 C105.27321188 96.8168575 105.27574617 94.68507384 105.27439499 92.55329704 C105.2734269 89.1778721 105.28640445 85.80276307 105.30337524 82.42738342 C105.34957106 72.83401903 105.37426415 63.24068867 105.38085938 53.6472168 C105.3858724 47.77108229 105.41010677 41.89528038 105.44618607 36.0192585 C105.45598379 33.78299518 105.45831619 31.54668613 105.45301437 29.31040764 C105.44594797 26.18435919 105.46321638 23.05930416 105.48583984 19.93334961 C105.47358116 18.55154007 105.47358116 18.55154007 105.46107483 17.14181519 C105.53254107 11.58935551 106.29821458 8.40496138 110 4 C113.81930172 0.37166337 116.88279006 -0.31000458 122 -0.5 C127.11720994 -0.31000458 130.18069828 0.37166337 134 4 C139.04377368 9.62619634 138.56769949 15.16528079 138.51757812 22.46850586 C138.5245874 23.72300537 138.53159668 24.97750488 138.53881836 26.27001953 C138.55338685 29.7027207 138.54999682 33.13445467 138.53730202 36.56710124 C138.52713389 40.1755706 138.53658008 43.78400022 138.54284668 47.39247131 C138.55012046 53.46102246 138.5405514 59.52937885 138.52148438 65.59790039 C138.49980427 72.57792889 138.50670295 79.55748834 138.52879 86.53750509 C138.54705792 92.55483618 138.5494446 98.57202754 138.53903532 104.58937746 C138.53285101 108.17192108 138.531821 111.75424594 138.54518127 115.33677483 C138.60115628 132.70709019 138.57652337 148.60906184 130.25 164.3125 C129.90638428 164.97709229 129.56276855 165.64168457 129.20874023 166.32641602 C126.11659273 172.12269616 122.44490086 177.15565299 118 182 C117.33613281 182.75539062 116.67226563 183.51078125 115.98828125 184.2890625 C107.87435768 193.01790449 97.59754036 200.00063611 86 203 C86.23203455 204.47765225 86.23203455 204.47765225 86.46875668 205.98515606 C87.04814699 210.05710274 87.29956425 214.13182514 87.49989319 218.23750305 C87.54158314 219.03932721 87.58327309 219.84115137 87.62622637 220.66727322 C87.76437388 223.33963973 87.89794138 226.01221468 88.03149414 228.68481445 C88.12989961 230.60736923 88.22857499 232.52991021 88.32749939 234.45243835 C88.59496695 239.66778912 88.85831966 244.88334002 89.12068486 250.09894967 C89.34063505 254.46439192 89.56253789 258.82973404 89.78441805 263.19507855 C90.30854007 273.5079151 90.82927164 283.82091906 91.34790039 294.1340332 C91.88113794 304.736479 92.42002829 315.33862664 92.96175677 325.9406417 C93.42792168 335.06778659 93.89052529 344.19510736 94.35034078 353.32257432 C94.62442277 358.76249518 94.89979782 364.20234223 95.17860603 369.64202309 C95.44124875 374.76935876 95.69939544 379.89690254 95.95427895 385.02462959 C96.04784519 386.89255853 96.14291178 388.7604131 96.23970413 390.62817764 C96.70975625 399.71602239 97.09009203 408.79664392 97.16184998 417.89738464 C97.17260152 418.63050064 97.18335306 419.36361664 97.19443041 420.11894828 C97.20186958 427.59392385 95.15630264 433.35278897 90.75 439.3125 C80.91705024 448.92197363 70.06360907 449.14739496 56.875 449.25 C55.95702637 449.25942627 55.03905273 449.26885254 54.09326172 449.27856445 C43.8257864 449.22982935 34.85058247 448.07002742 27 441 C21.06584123 433.89679924 18.64912217 427.14922936 18.81861877 417.88175964 C18.82622304 417.09728586 18.8338273 416.31281208 18.84166199 415.50456637 C18.96482806 406.29094073 19.42529312 397.09259616 19.90209961 387.8918457 C19.99937577 385.94985307 20.09626249 384.0078409 20.1927948 382.06581116 C20.45315387 376.85148096 20.71911926 371.63745128 20.98635936 366.42346978 C21.26638931 360.94433984 21.54173129 355.46497396 21.81776428 349.98564148 C22.28118998 340.80089335 22.74823379 331.61633474 23.2175293 322.43188477 C23.75955787 311.82321865 24.29604603 301.21428333 24.82955927 290.60518581 C25.3444565 280.3683983 25.86300483 270.13179898 26.38330269 259.89528465 C26.60412282 255.5498232 26.82371166 251.20430214 27.04231071 246.85872841 C27.2995332 241.74898416 27.559969 236.63941345 27.82287788 231.52995872 C27.91871733 229.65753652 28.01346767 227.78505821 28.10704041 225.91252136 C28.23507713 223.35401877 28.36709357 220.79575106 28.50010681 218.23750305 C28.53610345 217.49976333 28.57210009 216.76202362 28.60918754 216.00192815 C28.8427358 211.60970519 29.31858852 207.33939334 30 203 C28.741875 202.649375 27.48375 202.29875 26.1875 201.9375 C15.8762968 198.46272149 7.65818386 191.53033438 0 184 C-1.04994141 182.96939453 -1.04994141 182.96939453 -2.12109375 181.91796875 C-13.54366894 169.91647162 -22.07215131 152.20665701 -22.14717102 135.46583557 C-22.15432632 134.36537903 -22.16148163 133.26492249 -22.16885376 132.13111877 C-22.17154266 130.93357468 -22.17423157 129.73603058 -22.17700195 128.50219727 C-22.18357315 127.23338715 -22.19014435 125.96457703 -22.19691467 124.65731812 C-22.21787767 120.46036019 -22.22830618 116.2634022 -22.23828125 112.06640625 C-22.24233098 110.61873799 -22.24644796 109.17106991 -22.25063133 107.72340202 C-22.26966181 100.92426962 -22.28390026 94.12514796 -22.2922433 87.32599407 C-22.30202384 79.48593686 -22.32837336 71.64616136 -22.36874419 63.80620342 C-22.3989121 57.73896534 -22.41371259 51.67180804 -22.41702431 45.60449642 C-22.41937298 41.98361013 -22.42830996 38.36302556 -22.45348549 34.74221992 C-22.48111502 30.70369845 -22.47693311 26.66580725 -22.4699707 22.62719727 C-22.48278076 21.4316774 -22.49559082 20.23615753 -22.50878906 19.00440979 C-22.46905381 12.69102886 -22.29893036 8.76858759 -18 4 C-12.72867143 -1.00776214 -6.89190982 -0.92775709 0 0 Z " fill="#000000" transform="translate(294,32)"/>
</svg>
