<?xml version="1.0" encoding="UTF-8"?>
<svg version="1.1" xmlns="http://www.w3.org/2000/svg" width="512" height="512">
<path d="M0 0 C0 0.66 0 1.32 0 2 C-1.45019531 2.25523438 -1.45019531 2.25523438 -2.9296875 2.515625 C-15.9359786 4.8927408 -25.56060497 8.54215681 -36 17 C-36.6496875 17.52207031 -37.299375 18.04414062 -37.96875 18.58203125 C-48.59033042 28.11731368 -54.1174153 42.9770841 -55.33984375 56.859375 C-55.77213538 73.80520705 -50.18269994 89.49337473 -38.53442383 101.86523438 C-27.56499634 112.70777326 -12.70007113 118.29799558 2.625 118.4375 C17.96904141 118.19432434 31.19596692 112.7904039 43 103 C43.66 103.33 44.32 103.66 45 104 C34.22625428 122.01235612 19.69945144 134.9365749 -0.8125 140.875 C-10.883082 143.27486092 -20.7891857 143.70180238 -31 142 C-31 149.26 -31 156.52 -31 164 C-29.35 164.66 -27.7 165.32 -26 166 C-23.22275725 168.53024286 -23.0103493 169.87028877 -22.70703125 173.671875 C-22.72683249 175.03156035 -22.76240798 176.3910934 -22.8125 177.75 C-22.82603516 178.44738281 -22.83957031 179.14476562 -22.85351562 179.86328125 C-22.8887055 181.57585541 -22.94250845 183.28802941 -23 185 C-21.97519531 184.95359375 -20.95039063 184.9071875 -19.89453125 184.859375 C-18.53388344 184.82183989 -17.17320395 184.78544159 -15.8125 184.75 C-14.80219727 184.69972656 -14.80219727 184.69972656 -13.77148438 184.6484375 C-10.10958025 184.57698571 -8.17849378 184.88465822 -5.07421875 186.890625 C-1.8141588 190.2059402 -1.89145156 192.27724579 -1.91210938 196.86328125 C-1.92048828 197.60964844 -1.92886719 198.35601562 -1.9375 199.125 C-1.94201172 199.87910156 -1.94652344 200.63320312 -1.95117188 201.41015625 C-1.96296501 203.27347127 -1.98090058 205.13674555 -2 207 C-1.484375 207.24492187 -0.96875 207.48984375 -0.4375 207.7421875 C1.42950122 208.705608 3.2565182 209.74685903 5.0625 210.8203125 C17.11422417 217.93552893 29.78270191 223.49685061 42.61523438 229.02587891 C50.26808435 232.33915311 57.78824153 235.80208301 65.16796875 239.69140625 C65.84875992 240.04904556 66.52955109 240.40668488 67.23097229 240.77516174 C79.27959635 247.2429977 89.81175911 255.95318028 100 265 C100.98033203 265.87011719 100.98033203 265.87011719 101.98046875 266.7578125 C129.35791744 292.6395811 145.85263431 332.72694146 147.06640625 370.04150391 C147.75537825 396.60711579 142.55428106 420.6177775 132 445 C132.74765625 444.95359375 133.4953125 444.9071875 134.265625 444.859375 C135.25046875 444.82328125 136.2353125 444.7871875 137.25 444.75 C138.22453125 444.70359375 139.1990625 444.6571875 140.203125 444.609375 C143 445 143 445 145.3359375 446.515625 C147.63353944 449.94584762 147.51201191 453.01944337 147.375 457 C147.37306641 458.06734375 147.37306641 458.06734375 147.37109375 459.15625 C147.30870256 462.87199201 147.17895919 465.90927775 145 469 C142.27458845 470.36270577 140.1302952 470.127979 137.07756138 470.13142776 C135.17242939 470.13718948 135.17242939 470.13718948 133.22880989 470.1430676 C131.8061501 470.14228726 130.38349036 470.14140846 128.96083069 470.14044189 C127.45981454 470.143024 125.95879909 470.14603673 124.45778459 470.1494453 C120.31791883 470.15753652 116.17807038 470.15930604 112.03819764 470.16004276 C107.57936963 470.16188961 103.12055069 470.169435 98.66172791 470.17617798 C88.90575893 470.18977623 79.14979406 470.19578816 69.39381719 470.20018864 C63.3068141 470.20294817 57.2198126 470.20718496 51.13281059 470.21169281 C34.29255937 470.22388673 17.45230942 470.23418625 0.61205387 470.2375679 C-1.00552448 470.23789725 -1.00552448 470.23789725 -2.65578118 470.23823325 C-4.27730892 470.23856067 -4.27730892 470.23856067 -5.93159479 470.2388947 C-8.1222839 470.23933817 -10.312973 470.23978474 -12.50366211 470.24023438 C-13.59032795 470.2404558 -14.67699379 470.24067723 -15.79658891 470.24090537 C-33.41573874 470.2448558 -51.03484727 470.26231672 -68.65398114 470.2855939 C-86.72634892 470.30927796 -104.79869595 470.32176838 -122.8710795 470.32293582 C-133.02495068 470.32385417 -143.17876804 470.32964664 -153.33262444 470.34775543 C-161.97654485 470.36311665 -170.62039481 470.36830047 -179.26432627 470.36001733 C-183.67782065 470.35609683 -188.09117299 470.35710823 -192.50465012 470.37107468 C-196.54058322 470.3837301 -200.57626632 470.38269047 -204.61219866 470.37048396 C-206.0765187 470.36851236 -207.54085596 470.37167215 -209.00515174 470.38032833 C-210.9873128 470.39130909 -212.96955534 470.38220018 -214.95172024 470.3719368 C-216.60700368 470.37283243 -216.60700368 470.37283243 -218.29572719 470.37374616 C-221 470 -221 470 -222.81551749 468.60175395 C-225.49352843 464.98032893 -225.25485192 461.46782181 -225.3125 457.125 C-225.34150391 456.40441406 -225.37050781 455.68382812 -225.40039062 454.94140625 C-225.44139042 451.51634628 -225.2578424 449.38706694 -223.33984375 446.5078125 C-220.41647914 444.62397487 -218.6984925 444.58578607 -215.25 444.75 C-214.26515625 444.78609375 -213.2803125 444.8221875 -212.265625 444.859375 C-211.51796875 444.90578125 -210.7703125 444.9521875 -210 445 C-210.36351562 444.23300781 -210.72703125 443.46601563 -211.1015625 442.67578125 C-217.4830616 428.58739477 -222.21179652 413.39712866 -224 398 C-224.10957031 397.17628906 -224.21914062 396.35257812 -224.33203125 395.50390625 C-228.97493264 354.83209007 -217.4490546 313.09577117 -192 281 C-188.44553801 276.56437943 -184.77396568 272.25012022 -181 268 C-180.12988281 267.01966797 -180.12988281 267.01966797 -179.2421875 266.01953125 C-161.31365049 247.054923 -136.98283997 236.036437 -113.53515625 225.6953125 C-112.89904922 225.41377823 -112.2629422 225.13224396 -111.6075592 224.84217834 C-108.50602761 223.46988378 -105.40122304 222.10837526 -102.28637695 220.76635742 C-94.99006159 217.56408284 -88.33100205 213.92870148 -81.64892578 209.62573242 C-79 208 -79 208 -76 207 C-76.04640625 205.90300781 -76.0928125 204.80601562 -76.140625 203.67578125 C-76.1781579 202.2213815 -76.21455643 200.76695217 -76.25 199.3125 C-76.30027344 198.2306543 -76.30027344 198.2306543 -76.3515625 197.12695312 C-76.42291404 193.22045657 -76.27534719 191.43065666 -74.109375 188.04296875 C-70.41693604 184.46677324 -67.26286739 184.87888166 -62.375 184.9375 C-61.66859375 184.94201172 -60.9621875 184.94652344 -60.234375 184.95117188 C-58.48954725 184.96296125 -56.744763 184.98089676 -55 185 C-55.04640625 183.97519531 -55.0928125 182.95039063 -55.140625 181.89453125 C-55.17816011 180.53388344 -55.21455841 179.17320395 -55.25 177.8125 C-55.30027344 176.80219727 -55.30027344 176.80219727 -55.3515625 175.77148438 C-55.42136101 172.19431095 -55.09599134 170.1590653 -53.234375 167.07421875 C-51 165 -51 165 -47 164 C-47 155.09 -47 146.18 -47 137 C-49.97 136.01 -49.97 136.01 -53 135 C-60.69405122 131.21502319 -66.90795448 125.96834917 -73 120 C-73.62777344 119.40832031 -74.25554687 118.81664062 -74.90234375 118.20703125 C-87.68414668 105.07742416 -92.67330188 85.64653278 -92.46875 67.8425293 C-91.76013002 47.50845741 -83.3525362 30.02803875 -68.76953125 15.828125 C-50.02041684 -0.37713971 -23.9030536 -6.2696534 0 0 Z " fill="#000000" transform="translate(295,22)"/>
</svg>
