<?xml version="1.0" encoding="UTF-8"?>
<svg version="1.1" xmlns="http://www.w3.org/2000/svg" width="512" height="512">
<path d="M0 0 C13.96732401 13.32896368 20.80564278 32.47191127 21.328125 51.5234375 C21.52767908 66.87893327 20.52228023 80.7230905 15.4375 95.25 C12.44220812 103.85465667 12.16755556 109.27053082 15.86328125 117.73828125 C21.02797759 127.76386826 29.45405857 135.01860624 38.5625 141.375 C40.15060915 142.50268265 41.73782967 143.63161765 43.32421875 144.76171875 C44.51990479 145.6112915 44.51990479 145.6112915 45.73974609 146.47802734 C49.48879966 149.16491302 53.1859335 151.91906857 56.875 154.6875 C57.83877563 155.40715942 57.83877563 155.40715942 58.82202148 156.14135742 C69.77112293 164.36799521 69.77112293 164.36799521 71.3125 167.9375 C71.07324658 172.08455928 69.42058493 174.27333227 66.9609375 177.55078125 C65.60386182 181.83127698 67.51030584 185.14588882 69.125 189.1875 C69.70048809 190.74775187 70.27341535 192.30895073 70.84375 193.87109375 C71.43690303 195.45595272 72.03066265 197.04058478 72.625 198.625 C75.03182244 205.09006432 77.27179817 211.53777579 79.125 218.1875 C79.61806641 216.64255859 79.61806641 216.64255859 80.12109375 215.06640625 C88.9115685 188.39785701 103.33634436 166.11062738 128.93505859 153.11499023 C132.31768197 151.44264961 135.71687924 149.80716116 139.125 148.1875 C157.65704351 139.81740844 157.65704351 139.81740844 171.125 125.1875 C171.49574496 123.8640813 171.83862652 122.53170204 172.125 121.1875 C171.465 120.98125 170.805 120.775 170.125 120.5625 C160.7882281 116.28314621 152.20675965 108.08057939 147.125 99.1875 C147.125 98.5275 147.125 97.8675 147.125 97.1875 C146.4959375 97.18492187 145.866875 97.18234375 145.21875 97.1796875 C139.37379428 96.91560818 135.3313611 95.94389514 130.82421875 92.11328125 C126.44005387 87.14456105 124.73928966 81.50446576 125.125 74.9375 C126.05182443 69.07372958 128.72313086 65.31174726 133.0625 61.375 C136.0544029 59.2379265 137.60611367 58.74123338 141.125 58.1875 C141.00382812 57.13884766 140.88265625 56.09019531 140.7578125 55.00976562 C140.30599097 51.08905475 139.86014018 47.16768333 139.41601562 43.24609375 C139.22361341 41.55450381 139.02962992 39.86309289 138.83398438 38.171875 C138.5517438 35.72963001 138.27534846 33.28678049 138 30.84375 C137.91250488 30.09758423 137.82500977 29.35141846 137.73486328 28.5826416 C137.57547394 27.14934018 137.43504221 25.71377895 137.31542969 24.27661133 C137.15313718 22.17683418 137.15313718 22.17683418 136.75488281 20.08081055 C136.5078125 18.02148438 136.5078125 18.02148438 137.125 14.1875 C139.77340429 11.54843916 142.83092392 9.9135068 146.125 8.1875 C146.91490326 7.75861481 147.70480652 7.32972961 148.51864624 6.8878479 C150.98565569 5.58466193 153.47598567 4.34280312 155.98046875 3.11328125 C157.33837273 2.43751289 157.33837273 2.43751289 158.72370911 1.74809265 C161.5838397 0.32633456 164.44804234 -1.08698355 167.3125 -2.5 C169.2444194 -3.45842264 171.17606252 -4.41740241 173.10742188 -5.37695312 C181.99402223 -9.78966445 181.99402223 -9.78966445 186.03604126 -11.76681519 C187.86890614 -12.68430529 189.66840162 -13.66783703 191.46118164 -14.66137695 C195.27497564 -16.30944209 196.83278709 -15.44431083 200.54101562 -13.98828125 C205.75286447 -11.61675215 210.81785986 -8.99568902 215.875 -6.3125 C217.06146293 -5.68854797 218.24823459 -5.06518266 219.43530273 -4.44238281 C221.83663592 -3.18153495 224.23607025 -1.91717337 226.63427734 -0.65039062 C229.91186274 1.0752817 233.19763579 2.78376694 236.48828125 4.484375 C237.45475586 4.98517578 238.42123047 5.48597656 239.41699219 6.00195312 C241.22777332 6.94021476 243.03958118 7.87649822 244.85253906 8.81054688 C245.65530273 9.22884766 246.45806641 9.64714844 247.28515625 10.078125 C247.98261963 10.43938477 248.68008301 10.80064453 249.39868164 11.17285156 C251.125 12.1875 251.125 12.1875 253.125 14.1875 C253.82491472 19.95834786 252.94867272 25.9801986 252.25 31.72265625 C252.16121582 32.48678329 252.07243164 33.25091034 251.98095703 34.03819275 C251.70046505 36.44272444 251.41286907 38.84634154 251.125 41.25 C250.93181794 42.89512673 250.73910551 44.54030868 250.546875 46.18554688 C250.07833369 50.18685567 249.6034261 54.18736157 249.125 58.1875 C249.888125 58.32285156 250.65125 58.45820313 251.4375 58.59765625 C255.99599882 59.59814073 258.97754314 61.49034522 261.6171875 65.39453125 C265.05287874 71.71270921 266.44831681 76.37917496 264.49609375 83.47265625 C262.27511507 89.43842409 258.93067354 93.45194535 253.125 96.1875 C249.77562604 96.9031782 246.54606648 97.17347924 243.125 97.1875 C242.88136719 97.91066406 242.63773437 98.63382812 242.38671875 99.37890625 C238.36153423 108.33899191 228.68975716 116.51581427 220.125 121.1875 C220.5450879 126.54362074 221.25678779 129.41363443 225.125 133.1875 C233.55138004 140.10977975 243.4251811 144.51971147 253.19970703 149.17578125 C270.88642408 157.61764668 285.29722853 167.39394182 296.125 184.1875 C296.61484375 184.89777344 297.1046875 185.60804688 297.609375 186.33984375 C305.87366087 198.98064661 310.95442762 214.51183079 314.125 229.1875 C314.30015137 229.96770508 314.47530273 230.74791016 314.65576172 231.55175781 C316.25521862 239.31076464 316.51152251 246.90555077 316.5 254.8125 C316.49912384 255.47224823 316.49824768 256.13199646 316.49734497 256.81173706 C316.41336491 276.00946372 312.89554707 292.95542264 299.16015625 307.37890625 C293.87471585 312.07594829 288.22600004 314.06663191 281.125 314.1875 C257.53386679 308.49123549 234.05073953 288.53760833 216.78125 272.40234375 C215.06416486 270.89177695 215.06416486 270.89177695 212.125 271.1875 C223.49265993 291.80707244 254.4015526 307.10359571 275.125 316.1875 C277.12807754 317.1813211 279.12852869 318.18047353 281.125 319.1875 C281.41400979 323.97038147 281.6986514 328.75349713 281.97949219 333.53686523 C282.07533806 335.15932997 282.17231493 336.78172835 282.27050781 338.40405273 C282.58839561 343.66379831 282.87713288 348.92397815 283.125 354.1875 C283.18042969 355.33782715 283.23585938 356.4881543 283.29296875 357.67333984 C283.32003906 358.65125488 283.34710938 359.62916992 283.375 360.63671875 C283.40078125 361.45873779 283.4265625 362.28075684 283.453125 363.12768555 C283.01503546 365.87780569 282.37836609 366.54679403 280.125 368.1875 C277.03119659 368.56502342 277.03119659 368.56502342 273.14074707 368.56845093 C272.42567883 368.5731309 271.71061059 368.57781087 270.97387362 368.58263266 C268.57158789 368.59462351 266.16986834 368.58510981 263.76757812 368.57568359 C262.04788377 368.57974749 260.32819203 368.58508834 258.60850525 368.59161377 C253.93294588 368.60531486 249.25758464 368.59997723 244.58202171 368.59047651 C239.69469026 368.58289436 234.80737605 368.5899215 229.92004395 368.59463501 C221.71180162 368.60009678 213.50364021 368.5928899 205.29541016 368.57861328 C195.79832681 368.56228596 186.30143667 368.56757417 176.80435801 368.5840925 C168.65822903 368.59769537 160.5121583 368.5996329 152.36602163 368.59177649 C147.49724249 368.58709337 142.62855423 368.58649263 137.75978088 368.59638596 C133.18299351 368.60503592 128.60645583 368.5990699 124.02969551 368.58170319 C122.34744749 368.57772778 120.66517854 368.57889033 118.98293877 368.58549118 C116.69142402 368.59365544 114.40071589 368.58344807 112.10925293 368.56845093 C110.82540459 368.56731985 109.54155624 368.56618877 108.21880341 368.56502342 C105.125 368.1875 105.125 368.1875 103.206707 366.78099728 C101.82283654 364.74237332 101.81586993 363.62606729 101.95214844 361.1784668 C102.00770905 359.97657967 102.00770905 359.97657967 102.06439209 358.75041199 C102.12048645 357.88789322 102.17658081 357.02537445 102.234375 356.13671875 C102.30377289 354.79937431 102.30377289 354.79937431 102.37457275 353.43501282 C102.52673858 350.58065582 102.70102159 347.72810169 102.875 344.875 C102.97792429 342.96426558 103.07950258 341.05345814 103.1796875 339.14257812 C104.00487457 324.0550785 104.00487457 324.0550785 105.125 318.1875 C106.32253906 317.775 107.52007812 317.3625 108.75390625 316.9375 C135.32646527 307.59429849 156.60522389 292.04158279 178.125 274.1875 C177.795 273.1975 177.465 272.2075 177.125 271.1875 C173.16391322 273.39049573 169.99482463 275.9789341 166.625 279 C154.57850025 289.42050507 140.98644946 297.93137976 126.9375 305.375 C126.10154297 305.82037109 125.26558594 306.26574219 124.40429688 306.72460938 C117.39237503 310.32290606 109.19522392 314.42461446 101.125 312.87890625 C92.07723254 309.75106476 85.94408368 302.63872547 81.65234375 294.33984375 C79.65598653 290.01537315 77.88396763 285.61277603 76.125 281.1875 C75.70089844 282.11691406 75.27679688 283.04632813 74.83984375 284.00390625 C70.33463578 293.61415104 65.96777261 301.51030264 55.55078125 305.51953125 C41.52106629 309.38278609 26.90815107 301.20941995 14.91015625 294.4453125 C1.39597647 286.53886609 -11.38223761 276.90960623 -23.0625 266.5 C-25.65435809 263.8699473 -25.65435809 263.8699473 -28.875 264.1875 C-20.88864106 283.07587274 13.16882325 298.62931502 30.85498047 306.27587891 C36.14254951 308.39932296 41.58014294 309.89400153 47.125 311.1875 C48.59847834 320.2688417 48.83790227 329.45330227 49.2746582 338.63134766 C49.38359376 340.84304983 49.50116741 343.05434276 49.62719727 345.26513672 C49.80899288 348.46255896 49.96408519 351.66028626 50.11328125 354.859375 C50.1745369 355.84999939 50.23579254 356.84062378 50.29890442 357.86126709 C50.35457832 359.23849945 50.35457832 359.23849945 50.41137695 360.64355469 C50.47347099 361.85431671 50.47347099 361.85431671 50.53681946 363.08953857 C50.125 365.1875 50.125 365.1875 48.57651138 366.79481316 C45.24145095 368.68943817 42.22124687 368.60305965 38.48899841 368.56845093 C37.32935982 368.57547089 37.32935982 368.57547089 36.14629418 368.58263266 C33.5536542 368.59460667 30.96154046 368.58511623 28.36889648 368.57568359 C26.5111256 368.5797482 24.65335714 368.58508945 22.79559326 368.59161377 C17.74820886 368.60530545 12.70100815 368.59998131 7.65362048 368.59047651 C2.37658356 368.58289066 -2.90043745 368.58992243 -8.17747498 368.59463501 C-17.03883697 368.60009521 -25.90012399 368.59289349 -34.76147461 368.57861328 C-45.01463149 368.56228125 -55.26760947 368.56757825 -65.52076203 368.5840925 C-74.31658607 368.59769381 -83.11235617 368.59963382 -91.90818733 368.59177649 C-97.16483522 368.58709316 -102.42139893 368.58649332 -107.67804146 368.59638596 C-112.618439 368.60503382 -117.55860518 368.59907372 -122.49897766 368.58170319 C-124.3150691 368.57772687 -126.13117992 368.57889185 -127.94726372 368.58549118 C-130.42043523 368.59365163 -132.89285861 368.58345243 -135.36598206 368.56845093 C-136.08990428 368.57514309 -136.8138265 368.58183526 -137.55968577 368.58873022 C-140.47440256 368.55427844 -142.40976168 368.51825456 -144.82609081 366.80039978 C-146.2796087 364.56533623 -146.17022409 363.07942814 -146.04785156 360.42822266 C-146.01081116 359.46357086 -145.97377075 358.49891907 -145.93560791 357.5050354 C-145.87951355 356.46438934 -145.82341919 355.42374329 -145.765625 354.3515625 C-145.69622711 352.74430801 -145.69622711 352.74430801 -145.62542725 351.10458374 C-145.52476947 348.83631709 -145.41667808 346.56837004 -145.30175781 344.30078125 C-145.1260824 340.83386092 -144.97109874 337.36652096 -144.8203125 333.8984375 C-144.71995761 331.69525716 -144.61843356 329.4921297 -144.515625 327.2890625 C-144.46762756 326.2524649 -144.41963013 325.21586731 -144.37017822 324.14785767 C-144.32052917 323.17690155 -144.27088013 322.20594543 -144.21972656 321.20556641 C-144.17736877 320.35523834 -144.13501099 319.50491028 -144.09136963 318.6288147 C-143.86658427 316.09254466 -143.41896501 313.67323065 -142.875 311.1875 C-142.32787354 311.04763672 -141.78074707 310.90777344 -141.21704102 310.76367188 C-110.57242656 302.80253574 -85.56361735 286.88552779 -61.875 266.1875 C-62.37 264.7025 -62.37 264.7025 -62.875 263.1875 C-66.82775773 265.64461967 -70.36580224 268.38814164 -73.9375 271.375 C-91.49746592 285.85427014 -120.1424077 307.50123729 -144.25 306.3125 C-153.76663629 303.35906115 -159.64806019 297.23686295 -164.24609375 288.6171875 C-175.33001571 265.52842425 -174.72935236 235.50241309 -167.875 211.1875 C-167.68244629 210.48286621 -167.48989258 209.77823242 -167.29150391 209.05224609 C-165.58694438 202.91896467 -163.72410333 196.92895856 -161.046875 191.14453125 C-157.64862906 184.64240504 -157.64862906 184.64240504 -157.609375 177.68359375 C-158.92372149 175.6106085 -158.92372149 175.6106085 -160.5703125 173.99609375 C-162.53706418 171.2697284 -162.36204145 169.46358224 -161.875 166.1875 C-155.31994627 157.66451437 -144.65806694 151.65117437 -135.89501953 145.59521484 C-121.63316124 135.65638539 -109.43083183 126.73000412 -104.22265625 109.51171875 C-103.55408487 105.04205615 -105.1657178 101.18214808 -106.58911133 96.97558594 C-115.05868188 71.6576085 -116.6638951 42.76108243 -104.875 18.1875 C-97.17083863 3.5870305 -85.58892033 -6.40460671 -70.125 -12.125 C-46.36572318 -19.31163914 -19.41194625 -16.23127262 0 0 Z M-84.875 7.1875 C-85.47699219 7.66316406 -86.07898438 8.13882813 -86.69921875 8.62890625 C-98.14559079 18.48050286 -102.47194652 35.8361708 -103.875 50.1875 C-105.20082678 75.4292021 -99.64735742 101.2250632 -82.953125 120.9140625 C-74.47731806 130.18646784 -63.33857117 138.54393496 -50.37109375 139.42578125 C-41.77267017 139.66138357 -34.71978207 139.09159061 -26.875 135.1875 C-26.03582031 134.775 -25.19664062 134.3625 -24.33203125 133.9375 C-7.14157766 124.55604316 2.40649917 106.85500804 8.3125 88.8125 C14.75120734 66.55073453 14.51830269 41.25349524 4.125 20.1875 C2.02690378 16.94411273 -0.28150763 14.04575725 -2.875 11.1875 C-3.679375 10.300625 -4.48375 9.41375 -5.3125 8.5 C-26.930362 -11.00880229 -62.76460143 -12.74238589 -84.875 7.1875 Z M154.1875 54.1875 C148.74440988 62.104722 149.30685115 70.90969204 150.125 80.1875 C151.67896907 88.16925024 155.06016049 94.86828435 160.125 101.1875 C160.67671875 101.87585938 161.2284375 102.56421875 161.796875 103.2734375 C168.8216423 111.10875488 179.5219667 116.7883077 190.06640625 117.42578125 C205.56697479 117.79880306 216.56260732 114.18596406 228.25 103.6875 C236.73257211 94.91594247 240.30188915 83.80120724 240.375 71.875 C240.395625 71.04548828 240.41625 70.21597656 240.4375 69.36132812 C240.48002039 62.62716064 239.31073776 57.96934806 235.0625 52.5625 C216.33734081 37.42300959 171.38043237 35.02966107 154.1875 54.1875 Z M137.625 69.25 C134.64508057 72.75140533 134.125 74.62288733 134.125 79.1875 C135.60779564 82.44965041 137.47735954 84.79201577 140.125 87.1875 C141.115 86.8575 142.105 86.5275 143.125 86.1875 C142.89490234 85.43726563 142.89490234 85.43726563 142.66015625 84.671875 C141.93042604 81.28422234 141.76143523 77.88788481 141.5625 74.4375 C141.51931641 73.74011719 141.47613281 73.04273438 141.43164062 72.32421875 C141.32610404 70.61218078 141.2251009 68.89986439 141.125 67.1875 C139.71340004 67.08143617 139.71340004 67.08143617 137.625 69.25 Z M249.125 67.1875 C249.06441406 68.21230469 249.00382812 69.23710937 248.94140625 70.29296875 C248.85694974 71.65365695 248.77230433 73.01433343 248.6875 74.375 C248.64818359 75.04853516 248.60886719 75.72207031 248.56835938 76.41601562 C248.33572435 80.08449102 247.95292989 83.60444206 247.125 87.1875 C250.94413463 86.64190934 252.79446583 85.2413034 255.125 82.1875 C256.26232753 78.09312087 256.37724268 75.89112431 254.9375 71.875 C253.06062504 69.09204748 252.08468901 68.49270447 249.125 67.1875 Z M-96.875 117.1875 C-97.35066406 118.29544922 -97.35066406 118.29544922 -97.8359375 119.42578125 C-104.71823611 134.38812657 -115.81432771 142.91357559 -128.875 152.1875 C-130.14989813 153.09873656 -131.42464289 154.01018773 -132.69921875 154.921875 C-134.47963599 156.19349994 -136.2610539 157.463556 -138.04638672 158.72827148 C-142.76620941 162.078067 -147.35376873 165.57529936 -151.875 169.1875 C-148.87875814 177.94923757 -141.16541293 182.38268079 -133.25 186.375 C-111.86996777 196.68955826 -88.37628616 200.42818584 -64.875 202.1875 C-64.75382812 201.03894531 -64.63265625 199.89039063 -64.5078125 198.70703125 C-63.72818515 191.42133103 -62.93053439 184.13499932 -61.9375 176.875 C-61.80472656 175.88886719 -61.67195313 174.90273437 -61.53515625 173.88671875 C-60.7852438 170.82050868 -59.75676664 168.71892417 -57.875 166.1875 C-53.61694939 164.90205076 -51.5600174 164.90103818 -47.4375 166.625 C-46.1690625 167.3984375 -46.1690625 167.3984375 -44.875 168.1875 C-44.38 167.671875 -43.885 167.15625 -43.375 166.625 C-40.21749599 164.80943519 -38.31637307 165.01242601 -34.77734375 165.27734375 C-31.59831243 166.79831767 -31.08532716 168.94567977 -29.875 172.1875 C-29.28306576 175.44510784 -29.0013401 178.70054517 -28.75 182 C-28.60200864 183.71488231 -28.45357383 185.42972641 -28.3046875 187.14453125 C-28.23475586 187.97807129 -28.16482422 188.81161133 -28.09277344 189.67041016 C-28.05924865 196.43991288 -28.05924865 196.43991288 -25.875 202.1875 C1.13075392 202.36083603 36.28103905 196.21466747 56.5234375 176.94921875 C58.30911233 175.07302192 58.30911233 175.07302192 60.125 172.1875 C59.95257421 169.47179385 59.34818495 168.41481801 57.4375 166.46875 C51.21135096 161.6729325 44.83614952 157.12885433 38.39355469 152.62890625 C32.78414435 148.6975674 27.40392306 144.55352659 22.125 140.1875 C20.88363281 139.25357422 20.88363281 139.25357422 19.6171875 138.30078125 C13.44329023 133.06554861 8.8264236 125.78525389 6.125 118.1875 C2.48101185 119.40216272 1.81633918 120.63846495 -0.4375 123.6875 C-9.82093327 135.62540694 -21.62388553 144.51855497 -36.875 147.1875 C-54.11017163 148.96323288 -67.90935216 144.85052282 -81.53515625 134.0859375 C-86.80152876 129.59005991 -90.83813357 124.87037352 -94.59765625 119.05859375 C-95.22994141 118.13240234 -95.22994141 118.13240234 -95.875 117.1875 C-96.205 117.1875 -96.535 117.1875 -96.875 117.1875 Z M207.41503906 124.68139648 C204.71185571 125.27880577 202.25286674 125.29988227 199.484375 125.28515625 C198.41445313 125.28193359 197.34453125 125.27871094 196.2421875 125.27539062 C195.13101562 125.26701172 194.01984375 125.25863281 192.875 125.25 C191.18503906 125.24323242 191.18503906 125.24323242 189.4609375 125.23632812 C186.68223783 125.22455397 183.90364591 125.2081084 181.125 125.1875 C181.07598603 127.12214347 181.04087224 129.05714285 181.01171875 130.9921875 C180.99069092 132.06968262 180.96966309 133.14717773 180.94799805 134.25732422 C180.91583751 137.36528328 180.91583751 137.36528328 182.9375 140.3125 C188.18348756 143.39837503 193.66269692 144.78355517 199.734375 143.73828125 C203.64592328 142.5303031 206.43079041 141.35380674 209.125 138.1875 C210.58479357 133.67541079 210.21700952 128.87998542 210.125 124.1875 C208.98847807 124.14125136 208.98847807 124.14125136 207.41503906 124.68139648 Z M171.125 140.1875 C171.125 143.3566596 171.44301224 145.46201812 173.65625 147.81640625 C182.29811954 154.6578863 191.24009832 156.33940993 202.125 155.1875 C209.37208662 153.55344353 214.49538973 151.03542876 219.125 145.1875 C219.78848258 143.07828208 219.78848258 143.07828208 220.125 141.1875 C219.135 140.8575 218.145 140.5275 217.125 140.1875 C216.58875 141.095 216.0525 142.0025 215.5 142.9375 C212.97794782 146.72057827 209.74859569 149.3031419 205.38671875 150.7734375 C196.52550575 152.39569756 186.77399422 152.33649827 179.125 147.1875 C176.56470956 144.94724586 174.64153249 143.22056498 173.125 140.1875 C172.465 140.1875 171.805 140.1875 171.125 140.1875 Z M-38.875 174.1875 C-41.01937355 179.43715167 -41.15220383 184.01276158 -41.10546875 189.58203125 C-41.10501053 190.48765305 -41.10455231 191.39327484 -41.1040802 192.32633972 C-41.10106589 194.24353342 -41.09320422 196.16072485 -41.08081055 198.07788086 C-41.06279825 200.9524039 -41.0602996 203.82659879 -41.06054688 206.70117188 C-42.44631011 231.29071822 -42.44631011 231.29071822 -34.375 253.25 C-31.95851234 255.3436544 -31.95851234 255.3436544 -28.875 256.1875 C-27.55497444 253.62863496 -26.24386218 251.06582932 -24.9375 248.5 C-24.56431641 247.77876953 -24.19113281 247.05753906 -23.80664062 246.31445312 C-20.92666724 240.99817933 -20.92666724 240.99817933 -19.875 235.1875 C-21.16158315 232.83963398 -22.44058133 230.83609922 -24 228.6875 C-31.36603759 217.8518175 -34.57949426 207.18764458 -35.875 194.1875 C-36.061147 192.41015092 -36.24734849 190.63280754 -36.43359375 188.85546875 C-36.93756719 183.96825824 -37.41244297 179.07879454 -37.875 174.1875 C-38.205 174.1875 -38.535 174.1875 -38.875 174.1875 Z M-53.875 175.1875 C-53.93445801 176.15236328 -53.93445801 176.15236328 -53.99511719 177.13671875 C-56.6407268 218.12174276 -56.6407268 218.12174276 -70.25 232.73828125 C-72.22870287 235.10421862 -72.22870287 235.10421862 -71.3515625 238.0078125 C-70.62066406 239.58175781 -70.62066406 239.58175781 -69.875 241.1875 C-69.46072754 242.11900879 -69.46072754 242.11900879 -69.03808594 243.06933594 C-68.13652813 245.08126461 -67.19875241 247.07243397 -66.25 249.0625 C-65.92515625 249.75085938 -65.6003125 250.43921875 -65.265625 251.1484375 C-64.47176528 252.82955219 -63.67380442 254.50872921 -62.875 256.1875 C-58.47401325 254.58714118 -56.48946765 253.15427851 -53.875 249.1875 C-50.15357389 240.56946059 -50.62642465 230.36085731 -50.3125 221.125 C-50.2714917 219.92705811 -50.2304834 218.72911621 -50.18823242 217.49487305 C-50.07607285 214.05926043 -49.97275242 210.62355008 -49.875 207.1875 C-49.85018555 206.34541992 -49.82537109 205.50333984 -49.79980469 204.63574219 C-49.53872873 194.63963064 -50.40614536 185.04980972 -51.875 175.1875 C-52.535 175.1875 -53.195 175.1875 -53.875 175.1875 Z M187.125 183.1875 C185.78317936 188.93815988 184.96623928 194.56175141 184.47314453 200.43676758 C182.98666603 217.92809835 177.04150897 230.78495126 167.125 245.1875 C170.425 251.4575 173.725 257.7275 177.125 264.1875 C182.05140967 262.21693613 184.36807044 260.52991652 187.125 256.1875 C192.09670456 244.00682382 190.31129516 228.36234485 190.31030273 215.45581055 C190.3125118 212.23278012 190.33079018 209.01008055 190.34960938 205.78710938 C190.35254009 203.72395949 190.35452704 201.660808 190.35546875 199.59765625 C190.36265427 198.64133804 190.36983978 197.68501984 190.37724304 196.69972229 C190.36042939 191.78911891 190.05744547 187.79387176 188.125 183.1875 C187.795 183.1875 187.465 183.1875 187.125 183.1875 Z M202.125 183.1875 C199.89582683 188.57296592 199.84915177 193.36620946 199.89453125 199.08984375 C199.89498947 200.04460098 199.89544769 200.99935822 199.8959198 201.98304749 C199.89893433 204.00278974 199.90679664 206.02252984 199.91918945 208.04223633 C199.937254 211.0835832 199.93970009 214.12462107 199.93945312 217.16601562 C198.67952489 240.40290344 198.67952489 240.40290344 206.5625 261.1875 C209.00227522 263.09171481 210.20442758 263.59222409 213.125 264.1875 C214.85942126 261.11815399 216.55773546 258.03025933 218.25 254.9375 C218.74371094 254.06480469 219.23742187 253.19210937 219.74609375 252.29296875 C220.20371094 251.44863281 220.66132813 250.60429687 221.1328125 249.734375 C221.56223145 248.95932617 221.99165039 248.18427734 222.43408203 247.38574219 C223.37005225 245.1853898 223.37005225 245.1853898 222.34643555 243.0402832 C220.90098389 240.84769223 219.37885061 238.73314816 217.8125 236.625 C208.23186168 222.98105562 206.03502279 208.38044375 204.85864258 192.11962891 C204.75652466 190.81517822 204.75652466 190.81517822 204.65234375 189.484375 C204.59812256 188.70416992 204.54390137 187.92396484 204.48803711 187.12011719 C204.26971482 184.95594353 204.26971482 184.95594353 202.125 183.1875 Z M-122.875 205.1875 C-124.95219871 211.50940911 -125.73151025 217.84260323 -126.5 224.4375 C-126.6340625 225.50613281 -126.768125 226.57476562 -126.90625 227.67578125 C-127.72444852 234.54697906 -128.04578172 241.26997798 -127.875 248.1875 C-128.71804687 248.10371094 -129.56109375 248.01992188 -130.4296875 247.93359375 C-131.52539062 247.83175781 -132.62109375 247.72992188 -133.75 247.625 C-134.84054688 247.52058594 -135.93109375 247.41617188 -137.0546875 247.30859375 C-139.82652023 246.96110596 -139.82652023 246.96110596 -141.875 248.1875 C-141.52713292 250.16286745 -141.52713292 250.16286745 -140.875 252.1875 C-131.91532752 256.66733624 -116.02919903 253.39007426 -106.76171875 250.58203125 C-96.99618093 247.2573287 -84.73314691 242.11444902 -77.875 234.1875 C-77.10913054 231.57213924 -77.10913054 231.57213924 -76.875 229.1875 C-80.62673078 229.41487762 -81.92468597 230.23286545 -84.75 232.8125 C-95.15247261 242.12115038 -109.6945665 245.04585949 -122.875 248.1875 C-122.75382812 247.09284424 -122.63265625 245.99818848 -122.5078125 244.87036133 C-122.05781364 240.79855636 -121.61138353 236.72636661 -121.16601562 232.65405273 C-120.97297508 230.89352945 -120.7789744 229.13311117 -120.58398438 227.37280273 C-120.30344568 224.83865091 -120.02639256 222.30413822 -119.75 219.76953125 C-119.66250488 218.98600784 -119.57500977 218.20248444 -119.48486328 217.3952179 C-119.07897353 213.6426518 -118.76984681 209.96315684 -118.875 206.1875 C-120.195 205.8575 -121.515 205.5275 -122.875 205.1875 Z M29.125 205.1875 C28.795 205.5175 28.465 205.8475 28.125 206.1875 C28.21506325 220.19233495 30.51655402 234.30160277 32.125 248.1875 C0.24402587 240.35064966 0.24402587 240.35064966 -8.33984375 230.5078125 C-10.04297269 228.75279237 -10.04297269 228.75279237 -13.875 229.1875 C-13.18217681 234.27109014 -11.57349479 236.11087391 -7.6875 239.2890625 C8.77240694 250.39949969 27.45726884 254.84575969 47.125 253.1875 C49.56293769 252.31043172 49.56293769 252.31043172 51.125 251.1875 C51.125 250.1975 51.125 249.2075 51.125 248.1875 C47.85586376 247.15634721 45.26458652 247.2236016 41.875 247.625 C40.98296875 247.72683594 40.0909375 247.82867187 39.171875 247.93359375 C38.49640625 248.01738281 37.8209375 248.10117187 37.125 248.1875 C37.06892578 246.63869141 37.06892578 246.63869141 37.01171875 245.05859375 C36.61979403 235.87392311 35.81544128 226.80466048 34.625 217.6875 C34.42910278 216.17434204 34.42910278 216.17434204 34.22924805 214.63061523 C33.70475084 209.75624449 33.70475084 209.75624449 32.125 205.1875 C31.135 205.1875 30.145 205.1875 29.125 205.1875 Z M126.125 214.1875 C123.36378375 216.94871625 123.84244587 224.02671626 123.34057617 227.95825195 C123.06751777 230.08590193 122.7832875 232.21184431 122.49804688 234.33789062 C121.54000619 241.6559791 120.90089835 248.79214553 121.125 256.1875 C120.20976562 256.10371094 119.29453125 256.01992188 118.3515625 255.93359375 C117.16304688 255.83175781 115.97453125 255.72992188 114.75 255.625 C113.56664062 255.52058594 112.38328125 255.41617188 111.1640625 255.30859375 C108.20601369 254.94596404 108.20601369 254.94596404 106.125 256.1875 C106.47286708 258.16286745 106.47286708 258.16286745 107.125 260.1875 C114.06827347 263.65913674 126.82114634 261.66613215 134 259.625 C145.07227657 255.64176591 153.75540178 249.35341331 162.125 241.1875 C161.63 239.2075 161.63 239.2075 161.125 237.1875 C157.43871976 237.76092137 155.8434466 239.19887094 153.25 241.8125 C145.47427277 248.95845758 136.27004006 252.74577019 126.125 255.1875 C126.24617188 254.18895996 126.36734375 253.19041992 126.4921875 252.16162109 C126.94303855 248.43841462 127.38919986 244.71465831 127.83398438 240.99072266 C128.02672566 239.38249713 128.22071938 237.77442117 128.41601562 236.16650391 C128.69734964 233.84836903 128.97409775 231.52972437 129.25 229.2109375 C129.33749512 228.49819672 129.42499023 227.78545593 129.51513672 227.05111694 C129.98349424 223.07272846 130.21266276 219.19259235 130.125 215.1875 C128.17896726 214.59679986 128.17896726 214.59679986 126.125 214.1875 Z M261.125 214.1875 C259.74611135 218.05676752 260.35054033 221.68186214 260.8671875 225.65625 C260.95501495 226.373573 261.04284241 227.090896 261.1333313 227.82995605 C261.31999674 229.34328167 261.51016854 230.85617837 261.70361328 232.36865234 C261.99884682 234.67847783 262.28357169 236.98940804 262.56640625 239.30078125 C262.74938637 240.77351387 262.9329603 242.24617286 263.1171875 243.71875 C263.24539383 244.75171204 263.24539383 244.75171204 263.37619019 245.80554199 C263.78574673 248.99141125 264.24357033 252.09510989 265.125 255.1875 C252.90006956 251.88346475 243.11207288 247.67113404 234 238.7265625 C232.14281832 236.87026767 232.14281832 236.87026767 229.125 237.1875 C228.795 238.1775 228.465 239.1675 228.125 240.1875 C237.24940383 250.61539009 251.10001984 260.26656121 265.35009766 261.35791016 C274.87594277 261.88171033 274.87594277 261.88171033 284.125 260.1875 C284.455 259.1975 284.785 258.2075 285.125 257.1875 C281.68324478 255.04050031 279.3529708 255.08893205 275.375 255.5625 C274.39015625 255.67335938 273.4053125 255.78421875 272.390625 255.8984375 C271.64296875 255.99382812 270.8953125 256.08921875 270.125 256.1875 C270.05768677 255.28378662 270.05768677 255.28378662 269.98901367 254.36181641 C268.98333286 241.16397786 267.56178014 228.19990597 265.125 215.1875 C263.805 214.8575 262.485 214.5275 261.125 214.1875 Z M-45.875 277.1875 C-46.58661638 285.07143613 -47.10311913 292.93805457 -47.41015625 300.84765625 C-47.45313339 301.91761337 -47.49611053 302.9875705 -47.54039001 304.08995056 C-47.62990182 306.33945548 -47.71806604 308.58901439 -47.80493164 310.83862305 C-47.93623664 314.21748994 -48.07430136 317.59603439 -48.21289062 320.97460938 C-48.72068238 333.71986695 -49.00457689 346.43233523 -48.875 359.1875 C-46.565 359.1875 -44.255 359.1875 -41.875 359.1875 C-42.865 332.1275 -43.855 305.0675 -44.875 277.1875 C-45.205 277.1875 -45.535 277.1875 -45.875 277.1875 Z M195.125 288.1875 C193.993134 290.45123199 193.93765348 291.86156788 193.82788086 294.37988281 C193.78791489 295.24969788 193.74794891 296.11951294 193.70677185 297.01568604 C193.66818558 297.96441589 193.6295993 298.91314575 193.58984375 299.890625 C193.54686661 300.8788324 193.50388947 301.86703979 193.45960999 302.88519287 C193.36917616 304.99351621 193.28106785 307.10194035 193.19506836 309.21044922 C193.06586954 312.35547681 192.92710534 315.49996824 192.78710938 318.64453125 C192.20735278 332.16658365 192.01185676 345.65389173 192.125 359.1875 C194.435 359.1875 196.745 359.1875 199.125 359.1875 C198.135 335.7575 197.145 312.3275 196.125 288.1875 C195.795 288.1875 195.465 288.1875 195.125 288.1875 Z " fill="#000000" transform="translate(183.875,79.8125)"/>
<path d="M0 0 C11.36026416 10.50490309 16.697947 25.14080444 17.53125 40.2890625 C18.13077531 60.2051117 12.6847244 78.35946268 -1.0625 93.125 C-8.34796327 100.03643279 -18.08725406 104.36279092 -28.125 104.6875 C-40.53585686 104.27265242 -51.37408093 98.63404659 -59.8125 89.6171875 C-71.90898621 74.74858987 -75.71695594 56.09521506 -74.6875 37.3125 C-73.05379609 22.93890317 -68.12990104 10.37089125 -57.36328125 0.4375 C-40.39302405 -13.03960937 -17.20583537 -13.58760601 0 0 Z M-57.6875 25.3125 C-58.37070313 25.60898438 -59.05390625 25.90546875 -59.7578125 26.2109375 C-62.05631468 27.4212599 -63.44485786 28.75310827 -64.48046875 31.140625 C-68.49905748 46.13616416 -64.91121087 62.71250439 -57.69921875 76.078125 C-51.94760073 85.32538659 -45.22737376 91.83110272 -34.6171875 94.9140625 C-27.06202326 96.47403568 -20.44774663 94.81015194 -13.6875 91.3125 C-1.08480439 82.24581251 4.81900317 70.26570043 7.9375 55.31640625 C8.96022299 47.12396894 9.90367482 36.90921597 6.3125 29.3125 C3.22563578 26.73912945 -0.05201489 24.99813917 -3.6875 23.3125 C-4.7084375 22.83490234 -4.7084375 22.83490234 -5.75 22.34765625 C-22.64820164 15.71379193 -41.55957322 17.86532701 -57.6875 25.3125 Z " fill="#000000" transform="translate(166.6875,104.6875)"/>
</svg>
